<?xml version="1.0" encoding="UTF-8"?><svg id="uuid-3bfefff1-e47a-41ec-9aa3-03d536a239e7" xmlns="http://www.w3.org/2000/svg" width="210mm" height="210mm" viewBox="0 0 595.28 595.28"><path d="M220.05,146.34l-49.23-102.23C97.33,80.93,42.09,148.75,22.22,230.43l110.58,25.24c12.12-47.7,44.41-87.33,87.25-109.34Z" style="fill:#bcbec0;"/><path d="M467.72,297.67c0,38.58-12.86,74.14-34.5,102.67l88.67,70.72c37.11-47.93,59.22-108.07,59.22-173.38,0-20.21-2.13-39.93-6.16-58.95l-110.58,25.24c2.19,10.9,3.35,22.16,3.35,33.71Z" style="fill:#bcbec0;"/><path d="M297.64,127.59c24.94,0,48.59,5.41,69.93,15.05l49.23-102.23c-36.23-16.81-76.59-26.21-119.16-26.21s-82.93,9.4-119.16,26.21l49.23,102.23c21.34-9.64,45-15.05,69.93-15.05Z" style="fill:#bcbec0;"/><path d="M462.48,255.67l110.58-25.24c-19.87-81.68-75.12-149.5-148.6-186.32l-49.23,102.23c42.84,22.01,75.13,61.63,87.25,109.34Z" style="fill:#bcbec0;"/><path d="M127.56,297.67c0-11.54,1.16-22.81,3.35-33.7l-110.58-25.24c-4.02,19.02-6.15,38.73-6.15,58.94,0,65.31,22.1,125.45,59.21,173.38l88.67-70.71c-21.64-28.53-34.5-64.09-34.5-102.67Z" style="fill:#c017a2;"/><path d="M167.37,406.98l-88.69,70.73c51.15,62.14,128.24,102.1,214.7,103.37v-113.44c-50.58-1.25-95.66-24.53-126.01-60.66Z" style="fill:#bcbec0;"/><path d="M301.89,467.64v113.44c86.46-1.27,163.55-41.24,214.7-103.37l-88.69-70.73c-30.35,36.13-75.44,59.42-126.02,60.66Z" style="fill:#bcbec0;"/><path d="M78.69,477.7c-1.8-2.19-3.56-4.41-5.3-6.65" style="fill:#ec008c;"/><circle cx="297.64" cy="297.67" r="170.38" style="fill:#fff;"/><path d="M203,363.06l12.88-14.94c12.11,12.62,29.11,21.12,46.62,21.12,22.15,0,35.29-11.08,35.29-27.56s-12.11-22.67-28.08-29.88l-24.21-10.56c-15.97-6.7-34.26-18.8-34.26-43.53s22.41-44.82,53.07-44.82c20.09,0,37.87,8.5,49.97,20.87l-11.59,13.91c-10.3-9.79-22.67-15.97-38.38-15.97-18.8,0-31.43,9.53-31.43,24.73,0,16.23,14.68,22.41,28.08,28.08l23.96,10.3c19.58,8.5,34.78,20.09,34.78,45.08,0,26.79-21.9,48.17-57.44,48.17-23.7,0-44.57-9.79-59.25-24.99Z" style="fill:#414042;"/><path d="M352.92,215.97h21.38v168.98h-21.38v-168.98Z" style="fill:#414042;"/><path d="M105.4,177.82c-8.1-5.59-8.81-14.48-4.35-20.94,2.15-3.11,4.87-4.51,7.62-5.23l1.79,5.32c-2.02.5-3.52,1.29-4.57,2.82-2.69,3.9-1.36,8.83,3.53,12.21,4.84,3.34,9.89,2.89,12.51-.91,1.3-1.88,1.55-4.25,1.37-6.42l5.35.27c.41,3.64-.59,7.18-2.5,9.94-4.57,6.61-12.72,8.49-20.77,2.93Z" style="fill:#fff;"/><path d="M120.84,155.62c-7.11-6.45-7.39-14.89-3.08-19.64,2.26-2.49,4.6-3.2,7.6-3.56l-3.67-3.01-7.91-7.18,4.64-5.11,31.37,28.46-3.83,4.22-2.68-1.78-.16.18c.15,3.05-.58,6.44-2.72,8.8-4.96,5.47-12.36,5.15-19.56-1.39ZM139.02,145.14l-10.18-9.23c-2.7.3-4.52,1.32-5.85,2.79-2.54,2.8-1.97,7.44,2.6,11.6,4.71,4.27,8.85,4.79,11.72,1.64,1.53-1.69,2.07-3.8,1.71-6.79Z" style="fill:#fff;"/><path d="M269.56,44.25l6.77-.43,1.69,26.41h.18s10.03-14.24,10.03-14.24l7.54-.48-9.29,12.62,12.19,16.72-7.48.48-8.36-12.27-4.27,5.56.48,7.48-6.77.43-2.7-42.27Z" style="fill:#fff;"/><path d="M299.23,90.3c.18-2.45,1.84-4.49,4.66-5.97l.02-.24c-1.42-1.07-2.44-2.71-2.27-5.1.17-2.27,1.87-4.13,3.64-5.2l.02-.24c-1.86-1.64-3.51-4.59-3.25-8.06.5-6.76,6.23-10.12,12.39-9.66,1.62.12,3.09.53,4.25,1.04l10.53.79-.38,5.09-5.38-.4c.87,1.21,1.46,3.06,1.3,5.09-.49,6.52-5.65,9.62-11.87,9.16-1.25-.09-2.67-.44-3.95-1.08-.96.71-1.55,1.39-1.65,2.71-.12,1.67,1,2.78,4.59,3.05l5.21.39c7.06.53,10.61,2.96,10.23,8.04-.43,5.8-6.87,9.89-16.45,9.18-7-.52-12.02-3.42-11.63-8.57ZM320.58,90.33c.17-2.27-1.64-3.07-4.99-3.32l-4.01-.3c-1.62-.12-2.86-.33-3.98-.72-1.64,1.08-2.46,2.34-2.56,3.72-.2,2.63,2.56,4.4,7.23,4.75,4.73.35,8.12-1.62,8.31-4.13ZM318.73,66.73c.27-3.65-1.78-5.97-4.65-6.18-2.87-.21-5.3,1.71-5.58,5.42-.28,3.77,1.83,6.09,4.7,6.31,2.81.21,5.25-1.77,5.53-5.54Z" style="fill:#fff;"/><path d="M473.09,130.72l3.52,4.48-2.86,2.86.15.19c3.6.3,7.03,1.27,9.29,4.14,2.67,3.4,2.63,6.55.89,9.68,4.1.36,7.71,1.26,10.01,4.19,3.86,4.9,2.29,9.8-3.56,14.4l-14.52,11.42-4.3-5.47,13.82-10.87c3.82-3,4.34-5.25,2.45-7.65-1.15-1.46-3.35-2.32-6.7-2.6l-16.18,12.72-4.26-5.42,13.82-10.87c3.82-3,4.35-5.25,2.42-7.7-1.11-1.42-3.35-2.32-6.7-2.6l-16.17,12.72-4.26-5.42,23.15-18.21Z" style="fill:#fff;"/><path d="M508.65,333.08l3.58,4.17c-2.59,2.1-4.39,4.27-5.08,7.19-.73,3.09.39,4.9,2.38,5.36,2.39.56,4.17-2.29,6.05-5.05,2.29-3.47,5.45-7.22,10.24-6.1,5.02,1.18,7.64,6.05,6.13,12.47-.93,3.97-3.32,6.8-5.68,8.71l-3.36-4.06c1.93-1.64,3.4-3.45,3.93-5.73.67-2.86-.36-4.52-2.17-4.95-2.28-.53-3.83,2.12-5.66,4.96-2.38,3.57-5.26,7.45-10.64,6.19-4.91-1.15-7.96-6-6.26-13.24.92-3.91,3.59-7.66,6.52-9.93Z" style="fill:#fff;"/><path d="M77.45,394.2l-1.85-5.39,3.65-1.76-.08-.23c-3.29-1.47-6.21-3.52-7.4-6.98-1.4-4.09-.32-7.06,2.35-9.43-3.75-1.7-6.86-3.74-8.07-7.26-2.02-5.9,1.08-10.01,8.11-12.42l17.48-5.99,2.25,6.58-16.63,5.7c-4.6,1.57-5.83,3.52-4.84,6.41.6,1.76,2.4,3.3,5.46,4.66l19.47-6.67,2.23,6.53-16.63,5.7c-4.6,1.57-5.83,3.52-4.82,6.47.58,1.7,2.4,3.3,5.47,4.66l19.47-6.67,2.24,6.53-27.87,9.54Z" style="fill:#fff;"/><path d="M76.67,342.1c-9.74,1.39-16.27-4.41-17.3-11.66-1.04-7.31,3.6-14.7,13.34-16.09,9.68-1.38,16.21,4.42,17.25,11.72,1.03,7.25-3.61,14.64-13.29,16.02ZM73.71,321.37c-5.88.84-9.37,4-8.76,8.28.61,4.28,4.84,6.28,10.72,5.44,5.82-.83,9.32-3.94,8.71-8.21-.61-4.28-4.85-6.34-10.67-5.51Z" style="fill:#fff;"/><path d="M79.78,306.75l-34.78,1.07-.21-6.9,35.14-1.08c1.68-.05,2.25-.85,2.23-1.57,0-.3-.02-.54-.15-1.08l5.13-1.06c.39.83.66,2.02.71,3.64.15,4.92-2.97,6.81-8.07,6.97Z" style="fill:#fff;"/><path d="M196.08,477.34l6.25,3.06-7.82,16.01.16.08,20.38-9.88,6.96,3.4-17.55,8.45,2.16,27.7-6.9-3.37-1.43-21.27-8.15,3.83-5.03,10.3-6.25-3.06,17.22-35.26Z" style="fill:#fff;"/><path d="M382.79,485.29l7.38-3.49,28.34,30-6.62,3.13-7.31-8.29-11.93,5.65,1.78,10.91-6.4,3.03-5.24-40.94ZM391.77,506.66l9.06-4.29-3.3-3.75c-2.91-3.2-5.87-6.78-8.74-10.2l-.22.1c.9,4.42,1.77,8.92,2.4,13.2l.81,4.93Z" style="fill:#fff;"/></svg>