<?xml version="1.0" encoding="UTF-8"?><svg id="uuid-e9deb4e1-4bb7-49f6-b3e6-f888d8a8bd71" xmlns="http://www.w3.org/2000/svg" width="238.8mm" height="51.44mm" viewBox="0 0 676.92 145.8"><rect x="40.59" y="-.11" width="9.37" height="145.75" style="fill:#0f3c80;"/><rect x="84.49" y="-.11" width="9.37" height="145.75" style="fill:#0f3c80;"/><rect x="129.99" y="-.11" width="9.37" height="145.75" style="fill:#0f3c80;"/><rect x="122.95" y="101.81" width="24.05" height="24.05" transform="translate(120.03 -62.1) rotate(45)" style="fill:#0f3c80;"/><rect x="77.01" y="60.88" width="24.05" height="24.05" transform="translate(77.63 -41.61) rotate(45)" style="fill:#0f3c80;"/><rect x="33.12" y="21.55" width="24.05" height="24.05" transform="translate(36.97 -22.09) rotate(45)" style="fill:#0f3c80;"/><path d="M269.6,61.65c-6.53-7.97-14.59-11.95-24.19-11.95-4.23,0-8.14.77-11.74,2.3-3.6,1.54-6.7,3.62-9.29,6.26-2.59,2.64-4.63,5.78-6.12,9.43-1.49,3.65-2.23,7.58-2.23,11.81s.74,8.3,2.23,11.95c1.49,3.65,3.55,6.82,6.19,9.5,2.64,2.69,5.74,4.8,9.29,6.34,3.55,1.54,7.39,2.3,11.52,2.3,9.02,0,17.14-3.84,24.34-11.52v33.41l-2.88,1.01c-4.32,1.54-8.35,2.66-12.1,3.38-3.74.72-7.44,1.08-11.09,1.08-7.49,0-14.67-1.42-21.53-4.25-6.86-2.83-12.91-6.82-18.14-11.95-5.23-5.13-9.43-11.23-12.6-18.29s-4.75-14.76-4.75-23.11,1.56-16.01,4.68-22.97c3.12-6.96,7.29-12.96,12.53-18,5.23-5.04,11.3-8.98,18.22-11.81,6.91-2.83,14.16-4.25,21.74-4.25,4.32,0,8.57.46,12.74,1.37,4.18.91,8.57,2.33,13.18,4.25v33.7Z" style="fill:#0f3c80;"/><path d="M362.05,61.65c-6.53-7.97-14.59-11.95-24.19-11.95-4.23,0-8.14.77-11.74,2.3-3.6,1.54-6.7,3.62-9.29,6.26-2.59,2.64-4.63,5.78-6.12,9.43-1.49,3.65-2.23,7.58-2.23,11.81s.74,8.3,2.23,11.95c1.49,3.65,3.55,6.82,6.19,9.5,2.64,2.69,5.74,4.8,9.29,6.34,3.55,1.54,7.39,2.3,11.52,2.3,9.02,0,17.14-3.84,24.34-11.52v33.41l-2.88,1.01c-4.32,1.54-8.35,2.66-12.1,3.38-3.74.72-7.44,1.08-11.09,1.08-7.49,0-14.67-1.42-21.53-4.25-6.86-2.83-12.91-6.82-18.14-11.95-5.23-5.13-9.43-11.23-12.6-18.29s-4.75-14.76-4.75-23.11,1.56-16.01,4.68-22.97c3.12-6.96,7.29-12.96,12.53-18,5.23-5.04,11.3-8.98,18.22-11.81,6.91-2.83,14.16-4.25,21.74-4.25,4.32,0,8.57.46,12.74,1.37,4.18.91,8.57,2.33,13.18,4.25v33.7Z" style="fill:#0f3c80;"/><path d="M372.99,79.65c0-8.06,1.49-15.57,4.46-22.54,2.97-6.96,7.1-13.03,12.38-18.22,5.28-5.18,11.59-9.24,18.94-12.17,7.34-2.93,15.43-4.39,24.26-4.39s16.8,1.46,24.19,4.39c7.39,2.93,13.75,6.98,19.08,12.17s9.48,11.26,12.46,18.22c2.97,6.96,4.46,14.47,4.46,22.54,0,7.49-1.22,14.45-3.67,20.88-2.45,6.43-5.98,12.15-10.58,17.14l18.43,19.3-25.92,4.03-9.94-10.22c-4.23,1.92-8.71,3.43-13.46,4.54-4.75,1.1-9.77,1.66-15.05,1.66-8.83,0-16.92-1.46-24.26-4.39-7.34-2.93-13.66-6.98-18.94-12.17-5.28-5.18-9.41-11.25-12.38-18.22-2.98-6.96-4.46-14.47-4.46-22.54ZM402.51,79.65c0,4.32.81,8.3,2.45,11.95,1.63,3.65,3.84,6.82,6.62,9.5,2.78,2.69,6.02,4.78,9.72,6.26,3.69,1.49,7.61,2.23,11.74,2.23,2.5,0,4.99-.29,7.49-.86l-16.13-16.99,26.64-3.31,7.49,7.92c3.46-4.8,5.18-10.37,5.18-16.7,0-4.32-.82-8.3-2.45-11.95-1.63-3.65-3.87-6.82-6.7-9.5-2.83-2.69-6.1-4.77-9.79-6.26-3.7-1.49-7.61-2.23-11.74-2.23s-8.04.75-11.74,2.23c-3.7,1.49-6.94,3.58-9.72,6.26-2.79,2.69-4.99,5.86-6.62,9.5-1.63,3.65-2.45,7.63-2.45,11.95Z" style="fill:#0f3c80;"/><path d="M502.58,133.93l18.43-108.58h27.94l21.74,57.89,21.6-57.89h27.94l18.43,108.58h-28.08l-9.36-62.5-25.63,62.5h-11.23l-24.34-62.5-9.36,62.5h-28.08Z" style="fill:#0f3c80;"/></svg>