<?xml version="1.0" encoding="UTF-8"?><svg id="uuid-2d5f39b8-1f88-4591-afc0-d09835972a2c" xmlns="http://www.w3.org/2000/svg" width="216.86mm" height="106.95mm" viewBox="0 0 614.73 303.15"><rect x="20.99" y="5.75" width="11.02" height="283.75" style="fill:#0f3c80;"/><rect x="70.61" y="5.75" width="11.02" height="283.75" style="fill:#0f3c80;"/><rect x="122.22" y="5.75" width="11.02" height="283.75" style="fill:#0f3c80;"/><rect x="113.94" y="125.61" width="28.29" height="28.29" transform="translate(136.34 -49.63) rotate(45)" style="fill:#0f3c80;"/><rect x="61.81" y="77.47" width="28.29" height="28.29" transform="translate(87.03 -26.88) rotate(45)" style="fill:#0f3c80;"/><rect x="12.21" y="31.23" width="28.29" height="28.29" transform="translate(39.8 -5.34) rotate(45)" style="fill:#0f3c80;"/><path d="M273.6,61.65c-6.53-7.97-14.59-11.95-24.19-11.95-4.23,0-8.14.77-11.74,2.3-3.6,1.54-6.7,3.62-9.29,6.26-2.59,2.64-4.63,5.78-6.12,9.43-1.49,3.65-2.23,7.58-2.23,11.81s.74,8.3,2.23,11.95c1.49,3.65,3.55,6.82,6.19,9.5,2.64,2.69,5.74,4.8,9.29,6.34,3.55,1.54,7.39,2.3,11.52,2.3,9.02,0,17.14-3.84,24.34-11.52v33.41l-2.88,1.01c-4.32,1.54-8.35,2.66-12.1,3.38-3.74.72-7.44,1.08-11.09,1.08-7.49,0-14.67-1.42-21.53-4.25-6.86-2.83-12.91-6.82-18.14-11.95-5.23-5.13-9.43-11.23-12.6-18.29s-4.75-14.76-4.75-23.11,1.56-16.01,4.68-22.97c3.12-6.96,7.29-12.96,12.53-18,5.23-5.04,11.3-8.98,18.22-11.81,6.91-2.83,14.16-4.25,21.74-4.25,4.32,0,8.57.46,12.74,1.37,4.18.91,8.57,2.33,13.18,4.25v33.7Z" style="fill:#0f3c80;"/><path d="M318.24,25.36v108.58h-28.22V25.36h28.22Z" style="fill:#0f3c80;"/><path d="M367.77,133.93h-28.22V25.36h44.93c12.19,0,21.53,3.17,28.01,9.5,6.48,6.34,9.72,15.26,9.72,26.78s-3.24,20.45-9.72,26.78c-6.48,6.34-15.82,9.5-28.01,9.5h-16.7v36ZM367.77,75.18h9.36c10.37,0,15.55-4.51,15.55-13.54s-5.18-13.54-15.55-13.54h-9.36v27.07Z" style="fill:#0f3c80;"/><path d="M430.84,133.93l18.43-108.58h27.94l21.74,57.89,21.6-57.89h27.94l18.43,108.58h-28.08l-9.36-62.5-25.63,62.5h-11.23l-24.34-62.5-9.36,62.5h-28.08Z" style="fill:#0f3c80;"/><path d="M190.51,273.93l18.43-108.58h27.94l21.74,57.89,21.6-57.89h27.94l18.43,108.58h-28.08l-9.36-62.5-25.63,62.5h-11.23l-24.34-62.5-9.36,62.5h-28.08Z" style="fill:#0f3c80;"/><path d="M435.45,273.93h-35.14l-26.93-41.76v41.76h-28.22v-108.58h43.92c6.05,0,11.33.89,15.84,2.66,4.51,1.78,8.23,4.2,11.16,7.27,2.93,3.07,5.13,6.62,6.62,10.66,1.49,4.03,2.23,8.35,2.23,12.96,0,8.26-1.99,14.95-5.98,20.09-3.98,5.14-9.86,8.62-17.64,10.44l34.13,44.5ZM373.39,213.89h5.33c5.57,0,9.84-1.15,12.82-3.46,2.97-2.3,4.46-5.62,4.46-9.94s-1.49-7.63-4.46-9.94c-2.98-2.3-7.25-3.46-12.82-3.46h-5.33v26.78Z" style="fill:#0f3c80;"/><path d="M514.51,255.07h-40.32l-6.48,18.86h-30.1l41.33-108.58h30.82l41.33,108.58h-30.1l-6.48-18.86ZM507.02,233.61l-12.67-36.14-12.67,36.14h25.34Z" style="fill:#0f3c80;"/></svg>