<?xml version="1.0" encoding="UTF-8"?><svg id="uuid-4162b5c4-51d5-4227-8dcd-f05974f2b5f8" xmlns="http://www.w3.org/2000/svg" width="206.54mm" height="104.93mm" viewBox="0 0 585.46 297.43"><path d="M31.43,8h18.98c4.51,0,7.93,1.08,10.27,3.25s3.51,5.29,3.51,9.36c0,2.47-.44,4.52-1.33,6.14-.89,1.62-2.24,3-4.06,4.13,1.82.35,3.37.88,4.65,1.59,1.28.72,2.32,1.59,3.12,2.63.8,1.04,1.38,2.21,1.72,3.51.35,1.3.52,2.69.52,4.16,0,2.3-.4,4.33-1.2,6.11-.8,1.78-1.93,3.27-3.38,4.48-1.45,1.21-3.22,2.12-5.3,2.73-2.08.61-4.42.91-7.02.91h-20.48V8ZM44.17,27.23h2.34c3.99,0,5.98-1.58,5.98-4.75s-1.99-4.74-5.98-4.74h-2.34v9.49ZM44.17,47.13h2.79c3.21,0,5.5-.41,6.89-1.24,1.39-.82,2.08-2.14,2.08-3.96s-.69-3.14-2.08-3.96-3.68-1.24-6.89-1.24h-2.79v10.4Z" style="fill:#0f3c80;"/><path d="M101.63,43.93c0,4.85-.98,8.4-2.94,10.66s-5.01,3.4-9.16,3.4-7.23-1.13-9.17-3.4c-1.95-2.26-2.92-5.82-2.92-10.66v-17.27h5.21v17.08c0,3.24.52,5.59,1.57,7.05,1.05,1.46,2.82,2.19,5.32,2.19s4.26-.72,5.28-2.16c1.03-1.44,1.54-3.8,1.54-7.08v-17.08h5.27v17.27Z" style="fill:#0f3c80;"/><path d="M129.47,26.31l-1.24,5.14c-.38-.23-.79-.41-1.24-.52s-.92-.17-1.43-.17c-2.56,0-4.49,1.1-5.79,3.29-1.3,2.19-1.95,5.46-1.95,9.82v13.14h-5.17v-30.34h5.17v5.33c.74-2.18,1.81-3.77,3.21-4.76s3.26-1.49,5.59-1.49c.55,0,1.08.05,1.6.16s.94.24,1.25.41Z" style="fill:#0f3c80;"/><path d="M161.05,42.63h-24.38c.19,3.28,1.16,5.82,2.9,7.63,1.75,1.81,4.08,2.71,7,2.71,2.22,0,4.11-.44,5.67-1.32,1.55-.88,2.79-2.2,3.7-3.95l4.35,2.29c-1.4,2.65-3.25,4.64-5.57,5.98-2.32,1.34-5.05,2.01-8.2,2.01-4.57,0-8.22-1.49-10.93-4.47s-4.08-6.93-4.08-11.84c0-4.57,1.44-8.37,4.32-11.39,2.88-3.03,6.42-4.54,10.63-4.54s7.83,1.39,10.54,4.16c2.71,2.77,4.06,6.41,4.06,10.92v1.81ZM155.88,38.95c-.28-2.6-1.25-4.63-2.92-6.08-1.67-1.45-3.84-2.17-6.51-2.17s-4.73.75-6.51,2.24c-1.78,1.49-2.82,3.5-3.14,6.01h19.08Z" style="fill:#0f3c80;"/><path d="M197.59,57.01h-5.21v-5.01c-1.04,1.95-2.49,3.43-4.36,4.46-1.87,1.03-4.08,1.54-6.62,1.54-4.23,0-7.71-1.53-10.44-4.6-2.73-3.07-4.09-6.99-4.09-11.78s1.37-8.49,4.11-11.44c2.74-2.95,6.26-4.43,10.55-4.43,2.43,0,4.58.48,6.44,1.43,1.86.95,3.33,2.32,4.41,4.09v-4.6h5.21v30.34ZM192.38,41.48c0-3.32-.92-5.95-2.75-7.89-1.83-1.94-4.27-2.9-7.32-2.9s-5.49,1.01-7.38,3.02-2.84,4.67-2.84,7.97.93,6.06,2.79,8.16c1.86,2.09,4.25,3.14,7.17,3.14s5.42-1.07,7.38-3.22c1.96-2.15,2.94-4.9,2.94-8.27Z" style="fill:#0f3c80;"/><path d="M232.19,43.93c0,4.85-.98,8.4-2.94,10.66s-5.01,3.4-9.16,3.4-7.23-1.13-9.17-3.4c-1.95-2.26-2.92-5.82-2.92-10.66v-17.27h5.21v17.08c0,3.24.52,5.59,1.57,7.05,1.05,1.46,2.82,2.19,5.32,2.19s4.26-.72,5.28-2.16c1.03-1.44,1.54-3.8,1.54-7.08v-17.08h5.27v17.27Z" style="fill:#0f3c80;"/><path d="M153.42,202.46h-12.74v-49.01h20.28c5.5,0,9.72,1.43,12.64,4.29,2.92,2.86,4.39,6.89,4.39,12.09s-1.46,9.23-4.39,12.09c-2.92,2.86-7.14,4.29-12.64,4.29h-7.54v16.25ZM153.42,175.94h4.22c4.68,0,7.02-2.04,7.02-6.11s-2.34-6.11-7.02-6.11h-4.22v12.22Z" style="fill:#0f3c80;"/><path d="M215.68,187.2c0,4.51-1.58,8.34-4.73,11.51-3.15,3.16-6.99,4.74-11.52,4.74s-8.29-1.58-11.41-4.73c-3.12-3.15-4.68-6.99-4.68-11.52s1.54-8.33,4.63-11.39c3.09-3.07,6.91-4.6,11.46-4.6s8.45,1.54,11.57,4.62c3.12,3.08,4.68,6.87,4.68,11.38ZM210.5,187.2c0-3.19-1.06-5.83-3.17-7.92-2.12-2.08-4.73-3.13-7.84-3.13s-5.75,1.04-7.84,3.13-3.14,4.72-3.14,7.92,1.06,5.9,3.19,8.06c2.13,2.16,4.72,3.24,7.79,3.24s5.75-1.08,7.85-3.24,3.16-4.84,3.16-8.06Z" style="fill:#0f3c80;"/><path d="M230.6,160.16c0,.97-.35,1.81-1.06,2.51-.71.7-1.55,1.05-2.52,1.05s-1.81-.35-2.51-1.05c-.7-.7-1.05-1.53-1.05-2.51s.35-1.81,1.05-2.52c.7-.71,1.53-1.06,2.51-1.06s1.81.35,2.52,1.06c.71.71,1.06,1.55,1.06,2.52ZM229.62,202.46h-5.21v-30.34h5.21v30.34Z" style="fill:#0f3c80;"/><path d="M269.3,202.46h-5.21v-5.01c-1.04,1.95-2.49,3.43-4.36,4.46-1.87,1.03-4.08,1.54-6.62,1.54-4.23,0-7.71-1.53-10.44-4.6-2.73-3.07-4.09-6.99-4.09-11.78s1.37-8.49,4.11-11.44c2.74-2.95,6.26-4.43,10.55-4.43,2.43,0,4.58.48,6.44,1.43,1.86.95,3.33,2.32,4.41,4.09v-27.9h5.21v53.64ZM264.09,186.94c0-3.32-.92-5.95-2.75-7.89-1.83-1.94-4.27-2.9-7.32-2.9s-5.49,1.01-7.38,3.02-2.84,4.67-2.84,7.97.93,6.06,2.79,8.16c1.86,2.09,4.25,3.14,7.17,3.14s5.42-1.07,7.38-3.22c1.96-2.15,2.94-4.9,2.94-8.27Z" style="fill:#0f3c80;"/><path d="M298.95,194.28c0,2.79-1.02,5.02-3.05,6.68s-4.8,2.49-8.32,2.49c-2.64,0-4.88-.53-6.71-1.6-1.83-1.07-3.17-2.62-4.01-4.65l4.41-2.79c.61,1.46,1.47,2.55,2.57,3.27,1.1.72,2.45,1.08,4.06,1.08,1.78,0,3.19-.37,4.25-1.11,1.06-.74,1.59-1.76,1.59-3.05,0-1.42-.48-2.5-1.44-3.24-.96-.74-2.84-1.61-5.63-2.6-2.73-1.02-4.78-2.27-6.14-3.78-1.36-1.5-2.05-3.28-2.05-5.33,0-2.62.87-4.69,2.62-6.19,1.75-1.5,4.18-2.25,7.32-2.25,2.29,0,4.19.47,5.71,1.4,1.52.93,2.74,2.37,3.65,4.32l-4.28,2.6c-.55-1.27-1.25-2.21-2.1-2.81-.85-.6-1.9-.9-3.17-.9-1.46,0-2.6.33-3.43,1-.82.67-1.24,1.57-1.24,2.71s.43,2.14,1.29,2.92c.86.78,2.42,1.54,4.68,2.29,3.34,1.08,5.75,2.37,7.22,3.86,1.47,1.49,2.21,3.39,2.21,5.7Z" style="fill:#0f3c80;"/><path d="M349.97,188.09h-24.38c.19,3.28,1.16,5.82,2.9,7.63,1.75,1.81,4.08,2.71,7,2.71,2.22,0,4.11-.44,5.67-1.32,1.55-.88,2.79-2.2,3.7-3.95l4.35,2.29c-1.4,2.65-3.25,4.64-5.57,5.98-2.32,1.34-5.05,2.01-8.2,2.01-4.57,0-8.22-1.49-10.93-4.47s-4.08-6.93-4.08-11.84c0-4.57,1.44-8.37,4.32-11.39,2.88-3.03,6.42-4.54,10.63-4.54s7.83,1.39,10.54,4.16c2.71,2.77,4.06,6.41,4.06,10.92v1.81ZM344.79,184.4c-.28-2.6-1.25-4.63-2.92-6.08-1.67-1.45-3.84-2.17-6.51-2.17s-4.73.75-6.51,2.24c-1.78,1.49-2.82,3.5-3.14,6.01h19.08Z" style="fill:#0f3c80;"/><path d="M365.13,176.79h-4.82v25.68h-5.17v-25.68h-3.65v-4.67h3.65v-12.28h5.17v12.28h4.82v4.67Z" style="fill:#0f3c80;"/><path d="M188.58,275.07l8.32-49.01h12.61l9.81,26.13,9.75-26.13h12.61l8.32,49.01h-12.67l-4.22-28.21-11.57,28.21h-5.07l-10.98-28.21-4.23,28.21h-12.67Z" style="fill:#0f3c80;"/><path d="M284.57,260.69h-24.38c.19,3.28,1.16,5.82,2.9,7.63,1.75,1.81,4.08,2.71,7,2.71,2.22,0,4.11-.44,5.67-1.32,1.55-.88,2.79-2.2,3.7-3.95l4.35,2.29c-1.4,2.65-3.25,4.64-5.57,5.98-2.32,1.34-5.05,2.01-8.2,2.01-4.57,0-8.22-1.49-10.93-4.47s-4.08-6.93-4.08-11.84c0-4.57,1.44-8.37,4.32-11.39,2.88-3.03,6.42-4.54,10.63-4.54s7.83,1.39,10.54,4.16c2.71,2.77,4.06,6.41,4.06,10.92v1.81ZM279.39,257.01c-.28-2.6-1.25-4.63-2.92-6.08-1.67-1.45-3.84-2.17-6.51-2.17s-4.73.75-6.51,2.24c-1.78,1.49-2.82,3.5-3.14,6.01h19.08Z" style="fill:#0f3c80;"/><path d="M310.2,266.88c0,2.79-1.02,5.02-3.05,6.68s-4.8,2.49-8.32,2.49c-2.64,0-4.88-.53-6.71-1.6-1.83-1.07-3.17-2.62-4.01-4.65l4.41-2.79c.61,1.46,1.47,2.55,2.57,3.27,1.1.72,2.45,1.08,4.06,1.08,1.78,0,3.19-.37,4.25-1.11,1.06-.74,1.59-1.76,1.59-3.05,0-1.42-.48-2.5-1.44-3.24-.96-.74-2.84-1.61-5.63-2.6-2.73-1.02-4.78-2.27-6.14-3.78-1.36-1.5-2.05-3.28-2.05-5.33,0-2.62.87-4.69,2.62-6.19,1.75-1.5,4.18-2.25,7.32-2.25,2.29,0,4.19.47,5.71,1.4,1.52.93,2.74,2.37,3.65,4.32l-4.28,2.6c-.55-1.27-1.25-2.21-2.1-2.81-.85-.6-1.9-.9-3.17-.9-1.46,0-2.6.33-3.43,1-.82.67-1.24,1.57-1.24,2.71s.43,2.14,1.29,2.92c.86.78,2.42,1.54,4.68,2.29,3.34,1.08,5.75,2.37,7.22,3.86,1.47,1.49,2.21,3.39,2.21,5.7Z" style="fill:#0f3c80;"/><path d="M342.17,261.99c0,4.85-.98,8.4-2.94,10.66s-5.01,3.4-9.16,3.4-7.23-1.13-9.17-3.4c-1.95-2.26-2.92-5.82-2.92-10.66v-17.27h5.21v17.08c0,3.24.52,5.59,1.57,7.05,1.05,1.46,2.82,2.19,5.32,2.19s4.26-.72,5.28-2.16c1.03-1.44,1.54-3.8,1.54-7.08v-17.08h5.27v17.27Z" style="fill:#0f3c80;"/><path d="M369.04,244.38l-1.24,5.14c-.38-.23-.79-.41-1.24-.52s-.92-.17-1.43-.17c-2.56,0-4.49,1.1-5.79,3.29-1.3,2.19-1.95,5.46-1.95,9.82v13.14h-5.17v-30.34h5.17v5.33c.74-2.18,1.81-3.77,3.21-4.76s3.26-1.49,5.59-1.49c.55,0,1.08.05,1.6.16s.94.24,1.25.41Z" style="fill:#0f3c80;"/><path d="M399.65,260.69h-24.38c.19,3.28,1.16,5.82,2.9,7.63,1.75,1.81,4.08,2.71,7,2.71,2.22,0,4.11-.44,5.67-1.32,1.55-.88,2.79-2.2,3.7-3.95l4.35,2.29c-1.4,2.65-3.25,4.64-5.57,5.98-2.32,1.34-5.05,2.01-8.2,2.01-4.57,0-8.22-1.49-10.93-4.47s-4.08-6.93-4.08-11.84c0-4.57,1.44-8.37,4.32-11.39,2.88-3.03,6.42-4.54,10.63-4.54s7.83,1.39,10.54,4.16c2.71,2.77,4.06,6.41,4.06,10.92v1.81ZM394.47,257.01c-.28-2.6-1.25-4.63-2.92-6.08-1.67-1.45-3.84-2.17-6.51-2.17s-4.73.75-6.51,2.24c-1.78,1.49-2.82,3.5-3.14,6.01h19.08Z" style="fill:#0f3c80;"/><path d="M425.28,266.88c0,2.79-1.02,5.02-3.05,6.68s-4.8,2.49-8.32,2.49c-2.64,0-4.88-.53-6.71-1.6-1.83-1.07-3.17-2.62-4.01-4.65l4.41-2.79c.61,1.46,1.47,2.55,2.57,3.27,1.1.72,2.45,1.08,4.06,1.08,1.78,0,3.19-.37,4.25-1.11,1.06-.74,1.59-1.76,1.59-3.05,0-1.42-.48-2.5-1.44-3.24-.96-.74-2.84-1.61-5.63-2.6-2.73-1.02-4.78-2.27-6.14-3.78-1.36-1.5-2.05-3.28-2.05-5.33,0-2.62.87-4.69,2.62-6.19,1.75-1.5,4.18-2.25,7.32-2.25,2.29,0,4.19.47,5.71,1.4,1.52.93,2.74,2.37,3.65,4.32l-4.28,2.6c-.55-1.27-1.25-2.21-2.1-2.81-.85-.6-1.9-.9-3.17-.9-1.46,0-2.6.33-3.43,1-.82.67-1.24,1.57-1.24,2.71s.43,2.14,1.29,2.92c.86.78,2.42,1.54,4.68,2.29,3.34,1.08,5.75,2.37,7.22,3.86,1.47,1.49,2.21,3.39,2.21,5.7Z" style="fill:#0f3c80;"/><path d="M101.6,80.19v49.01h-12.74v-49.01h12.74Z" style="fill:#0f3c80;"/><path d="M138.13,129.2h-5.21v-18.12c0-2.94-.52-5.1-1.57-6.47-1.05-1.38-2.71-2.06-5-2.06-2.6,0-4.59,1.03-5.95,3.08-1.37,2.05-2.05,5.06-2.05,9.01v14.57h-5.17v-30.34h5.17v4.47c.91-1.8,2.18-3.15,3.81-4.05,1.63-.9,3.62-1.35,5.97-1.35,3.11,0,5.55,1.03,7.33,3.08s2.67,4.93,2.67,8.63v19.55Z" style="fill:#0f3c80;"/><path d="M158.93,103.52h-4.82v25.68h-5.17v-25.68h-3.65v-4.67h3.65v-12.28h5.17v12.28h4.82v4.67Z" style="fill:#0f3c80;"/><path d="M192.55,114.82h-24.38c.19,3.28,1.16,5.82,2.9,7.63,1.75,1.81,4.08,2.71,7,2.71,2.22,0,4.11-.44,5.67-1.32,1.55-.88,2.79-2.2,3.7-3.95l4.35,2.29c-1.4,2.65-3.25,4.64-5.57,5.98-2.32,1.34-5.05,2.01-8.2,2.01-4.57,0-8.22-1.49-10.93-4.47s-4.08-6.93-4.08-11.84c0-4.57,1.44-8.37,4.32-11.39,2.88-3.03,6.42-4.54,10.63-4.54s7.83,1.39,10.54,4.16c2.71,2.77,4.06,6.41,4.06,10.92v1.81ZM187.37,111.14c-.28-2.6-1.25-4.63-2.92-6.08-1.67-1.45-3.84-2.17-6.51-2.17s-4.73.75-6.51,2.24c-1.78,1.49-2.82,3.5-3.14,6.01h19.08Z" style="fill:#0f3c80;"/><path d="M217.66,98.51l-1.24,5.14c-.38-.23-.79-.41-1.24-.52s-.92-.17-1.43-.17c-2.56,0-4.49,1.1-5.79,3.29-1.3,2.19-1.95,5.46-1.95,9.82v13.14h-5.17v-30.34h5.17v5.33c.74-2.18,1.81-3.77,3.21-4.76s3.26-1.49,5.59-1.49c.55,0,1.08.05,1.6.16s.94.24,1.25.41Z" style="fill:#0f3c80;"/><path d="M248.29,129.2h-5.21v-18.12c0-2.94-.52-5.1-1.57-6.47-1.05-1.38-2.71-2.06-5-2.06-2.6,0-4.59,1.03-5.95,3.08-1.37,2.05-2.05,5.06-2.05,9.01v14.57h-5.17v-30.34h5.17v4.47c.91-1.8,2.18-3.15,3.81-4.05,1.63-.9,3.62-1.35,5.97-1.35,3.11,0,5.55,1.03,7.33,3.08s2.67,4.93,2.67,8.63v19.55Z" style="fill:#0f3c80;"/><path d="M287.27,129.2h-5.21v-5.01c-1.04,1.95-2.49,3.43-4.36,4.46-1.87,1.03-4.08,1.54-6.62,1.54-4.23,0-7.71-1.53-10.44-4.6-2.73-3.07-4.09-6.99-4.09-11.78s1.37-8.49,4.11-11.44c2.74-2.95,6.26-4.43,10.55-4.43,2.43,0,4.58.48,6.44,1.43,1.86.95,3.33,2.32,4.41,4.09v-4.6h5.21v30.34ZM282.07,113.68c0-3.32-.92-5.95-2.75-7.89-1.83-1.94-4.27-2.9-7.32-2.9s-5.49,1.01-7.38,3.02-2.84,4.67-2.84,7.97.93,6.06,2.79,8.16c1.86,2.09,4.25,3.14,7.17,3.14s5.42-1.07,7.38-3.22c1.96-2.15,2.94-4.9,2.94-8.27Z" style="fill:#0f3c80;"/><path d="M308.54,103.52h-4.82v25.68h-5.17v-25.68h-3.65v-4.67h3.65v-12.28h5.17v12.28h4.82v4.67Z" style="fill:#0f3c80;"/><path d="M322.93,86.89c0,.97-.35,1.81-1.06,2.51-.71.7-1.55,1.05-2.52,1.05s-1.81-.35-2.51-1.05c-.7-.7-1.05-1.53-1.05-2.51s.35-1.81,1.05-2.52c.7-.71,1.53-1.06,2.51-1.06s1.81.35,2.52,1.06c.71.71,1.06,1.55,1.06,2.52ZM321.94,129.2h-5.21v-30.34h5.21v30.34Z" style="fill:#0f3c80;"/><path d="M363.05,113.93c0,4.51-1.58,8.34-4.73,11.51-3.15,3.16-6.99,4.74-11.52,4.74s-8.29-1.58-11.41-4.73c-3.12-3.15-4.68-6.99-4.68-11.52s1.54-8.33,4.63-11.39c3.09-3.07,6.91-4.6,11.46-4.6s8.45,1.54,11.57,4.62c3.12,3.08,4.68,6.87,4.68,11.38ZM357.88,113.93c0-3.19-1.06-5.83-3.17-7.92-2.12-2.08-4.73-3.13-7.84-3.13s-5.75,1.04-7.84,3.13-3.14,4.72-3.14,7.92,1.06,5.9,3.19,8.06c2.13,2.16,4.72,3.24,7.79,3.24s5.75-1.08,7.85-3.24,3.16-4.84,3.16-8.06Z" style="fill:#0f3c80;"/><path d="M396.29,129.2h-5.21v-18.12c0-2.94-.52-5.1-1.57-6.47-1.05-1.38-2.71-2.06-5-2.06-2.6,0-4.59,1.03-5.95,3.08-1.37,2.05-2.05,5.06-2.05,9.01v14.57h-5.17v-30.34h5.17v4.47c.91-1.8,2.18-3.15,3.81-4.05,1.63-.9,3.62-1.35,5.97-1.35,3.11,0,5.55,1.03,7.33,3.08s2.67,4.93,2.67,8.63v19.55Z" style="fill:#0f3c80;"/><path d="M435.27,129.2h-5.21v-5.01c-1.04,1.95-2.49,3.43-4.36,4.46-1.87,1.03-4.08,1.54-6.62,1.54-4.23,0-7.71-1.53-10.44-4.6-2.73-3.07-4.09-6.99-4.09-11.78s1.37-8.49,4.11-11.44c2.74-2.95,6.26-4.43,10.55-4.43,2.43,0,4.58.48,6.44,1.43,1.86.95,3.33,2.32,4.41,4.09v-4.6h5.21v30.34ZM430.06,113.68c0-3.32-.92-5.95-2.75-7.89-1.83-1.94-4.27-2.9-7.32-2.9s-5.49,1.01-7.38,3.02-2.84,4.67-2.84,7.97.93,6.06,2.79,8.16c1.86,2.09,4.25,3.14,7.17,3.14s5.42-1.07,7.38-3.22c1.96-2.15,2.94-4.9,2.94-8.27Z" style="fill:#0f3c80;"/><path d="M451.59,129.2h-5.17v-53.64h5.17v53.64Z" style="fill:#0f3c80;"/><path d="M507.57,129.2h-5.21v-5.01c-1.04,1.95-2.49,3.43-4.36,4.46-1.87,1.03-4.08,1.54-6.62,1.54-4.23,0-7.71-1.53-10.44-4.6-2.73-3.07-4.09-6.99-4.09-11.78s1.37-8.49,4.11-11.44c2.74-2.95,6.26-4.43,10.55-4.43,2.43,0,4.58.48,6.44,1.43,1.86.95,3.33,2.32,4.41,4.09v-27.9h5.21v53.64ZM502.36,113.68c0-3.32-.92-5.95-2.75-7.89-1.83-1.94-4.27-2.9-7.32-2.9s-5.49,1.01-7.38,3.02-2.84,4.67-2.84,7.97.93,6.06,2.79,8.16c1.86,2.09,4.25,3.14,7.17,3.14s5.42-1.07,7.38-3.22c1.96-2.15,2.94-4.9,2.94-8.27Z" style="fill:#0f3c80;"/><path d="M540.66,114.82h-24.38c.19,3.28,1.16,5.82,2.9,7.63,1.75,1.81,4.08,2.71,7,2.71,2.22,0,4.11-.44,5.67-1.32,1.55-.88,2.79-2.2,3.7-3.95l4.35,2.29c-1.4,2.65-3.25,4.64-5.57,5.98-2.32,1.34-5.05,2.01-8.2,2.01-4.57,0-8.22-1.49-10.93-4.47s-4.08-6.93-4.08-11.84c0-4.57,1.44-8.37,4.32-11.39,2.88-3.03,6.42-4.54,10.63-4.54s7.83,1.39,10.54,4.16c2.71,2.77,4.06,6.41,4.06,10.92v1.81ZM535.49,111.14c-.28-2.6-1.25-4.63-2.92-6.08-1.67-1.45-3.84-2.17-6.51-2.17s-4.73.75-6.51,2.24c-1.78,1.49-2.82,3.5-3.14,6.01h19.08Z" style="fill:#0f3c80;"/><path d="M567.26,121.01c0,2.79-1.02,5.02-3.05,6.68s-4.8,2.49-8.32,2.49c-2.64,0-4.88-.53-6.71-1.6-1.83-1.07-3.17-2.62-4.01-4.65l4.41-2.79c.61,1.46,1.47,2.55,2.57,3.27,1.1.72,2.45,1.08,4.06,1.08,1.78,0,3.19-.37,4.25-1.11,1.06-.74,1.59-1.76,1.59-3.05,0-1.42-.48-2.5-1.44-3.24-.96-.74-2.84-1.61-5.63-2.6-2.73-1.02-4.78-2.27-6.14-3.78-1.36-1.5-2.05-3.28-2.05-5.33,0-2.62.87-4.69,2.62-6.19,1.75-1.5,4.18-2.25,7.32-2.25,2.29,0,4.19.47,5.71,1.4,1.52.93,2.74,2.37,3.65,4.32l-4.28,2.6c-.55-1.27-1.25-2.21-2.1-2.81-.85-.6-1.9-.9-3.17-.9-1.46,0-2.6.33-3.43,1-.82.67-1.24,1.57-1.24,2.71s.43,2.14,1.29,2.92c.86.78,2.42,1.54,4.68,2.29,3.34,1.08,5.75,2.37,7.22,3.86,1.47,1.49,2.21,3.39,2.21,5.7Z" style="fill:#0f3c80;"/><rect x="31.43" y="71.7" width="4.12" height="203.36" style="fill:#0f3c80;"/><rect x="26.32" y="104.96" width="14.34" height="14.34" transform="translate(89.1 9.16) rotate(45)" style="fill:#0f3c80;"/><rect x="86.8" y="144.12" width="4.12" height="130.95" style="fill:#0f3c80;"/><rect x="81.69" y="177.37" width="14.34" height="14.34" transform="translate(156.52 -8.78) rotate(45)" style="fill:#0f3c80;"/><rect x="140.91" y="216.92" width="4.12" height="58.15" style="fill:#0f3c80;"/><rect x="135.8" y="250.17" width="14.34" height="14.34" transform="translate(223.84 -25.72) rotate(45)" style="fill:#0f3c80;"/></svg>