<?xml version="1.0" encoding="UTF-8"?><svg id="uuid-2d92c426-d4a7-419b-bbf1-29286ee870f0" xmlns="http://www.w3.org/2000/svg" width="240.59mm" height="51.44mm" viewBox="0 0 681.99 145.8"><rect x="40.59" y="-.11" width="9.37" height="145.75" style="fill:#0f3c80;"/><rect x="84.49" y="-.11" width="9.37" height="145.75" style="fill:#0f3c80;"/><rect x="129.99" y="-.11" width="9.37" height="145.75" style="fill:#0f3c80;"/><rect x="122.95" y="101.81" width="24.05" height="24.05" transform="translate(120.03 -62.1) rotate(45)" style="fill:#0f3c80;"/><rect x="77.01" y="60.88" width="24.05" height="24.05" transform="translate(77.63 -41.61) rotate(45)" style="fill:#0f3c80;"/><rect x="33.12" y="21.55" width="24.05" height="24.05" transform="translate(36.97 -22.09) rotate(45)" style="fill:#0f3c80;"/><path d="M269.6,61.65c-6.53-7.97-14.59-11.95-24.19-11.95-4.23,0-8.14.77-11.74,2.3-3.6,1.54-6.7,3.62-9.29,6.26-2.59,2.64-4.63,5.78-6.12,9.43-1.49,3.65-2.23,7.58-2.23,11.81s.74,8.3,2.23,11.95c1.49,3.65,3.55,6.82,6.19,9.5,2.64,2.69,5.74,4.8,9.29,6.34,3.55,1.54,7.39,2.3,11.52,2.3,9.02,0,17.14-3.84,24.34-11.52v33.41l-2.88,1.01c-4.32,1.54-8.35,2.66-12.1,3.38-3.74.72-7.44,1.08-11.09,1.08-7.49,0-14.67-1.42-21.53-4.25-6.86-2.83-12.91-6.82-18.14-11.95-5.23-5.13-9.43-11.23-12.6-18.29s-4.75-14.76-4.75-23.11,1.56-16.01,4.68-22.97c3.12-6.96,7.29-12.96,12.53-18,5.23-5.04,11.3-8.98,18.22-11.81,6.91-2.83,14.16-4.25,21.74-4.25,4.32,0,8.57.46,12.74,1.37,4.18.91,8.57,2.33,13.18,4.25v33.7Z" style="fill:#0f3c80;"/><path d="M336.7,73.17h56.02c0,5.76-.24,10.99-.72,15.7-.48,4.71-1.44,9.07-2.88,13.1-2.02,5.67-4.75,10.68-8.21,15.05-3.46,4.37-7.51,8.02-12.17,10.94-4.66,2.93-9.77,5.16-15.34,6.7-5.57,1.54-11.42,2.3-17.57,2.3-8.45,0-16.15-1.39-23.11-4.18-6.96-2.78-12.94-6.7-17.93-11.74-4.99-5.04-8.88-11.09-11.66-18.14-2.79-7.06-4.18-14.85-4.18-23.4s1.37-16.2,4.1-23.26c2.74-7.06,6.62-13.08,11.66-18.07,5.04-4.99,11.11-8.88,18.22-11.66,7.1-2.78,15.02-4.18,23.76-4.18,11.33,0,21.26,2.45,29.81,7.34,8.54,4.9,15.31,12.48,20.3,22.75l-26.78,11.09c-2.5-5.95-5.74-10.22-9.72-12.82-3.98-2.59-8.52-3.89-13.61-3.89-4.23,0-8.06.79-11.52,2.38s-6.41,3.84-8.86,6.77c-2.45,2.93-4.37,6.46-5.76,10.58-1.39,4.13-2.09,8.74-2.09,13.82,0,4.61.6,8.88,1.8,12.82,1.2,3.94,3,7.34,5.4,10.22,2.4,2.88,5.38,5.11,8.93,6.7,3.55,1.58,7.68,2.38,12.38,2.38,2.78,0,5.47-.31,8.06-.94,2.59-.62,4.92-1.63,6.98-3.02,2.06-1.39,3.77-3.19,5.11-5.4,1.34-2.21,2.25-4.9,2.74-8.06h-23.18v-21.89Z" style="fill:#0f3c80;"/><path d="M435.2,133.93h-28.22V25.36h44.93c12.19,0,21.53,3.17,28.01,9.5,6.48,6.34,9.72,15.26,9.72,26.78s-3.24,20.45-9.72,26.78c-6.48,6.34-15.82,9.5-28.01,9.5h-16.7v36ZM435.2,75.18h9.36c10.37,0,15.55-4.51,15.55-13.54s-5.18-13.54-15.55-13.54h-9.36v27.07Z" style="fill:#0f3c80;"/><path d="M496.11,133.93l18.43-108.58h27.94l21.74,57.89,21.6-57.89h27.94l18.43,108.58h-28.08l-9.36-62.5-25.63,62.5h-11.23l-24.34-62.5-9.36,62.5h-28.08Z" style="fill:#0f3c80;"/></svg>